<svg xmlns="http://www.w3.org/2000/svg" width="54" height="54" viewBox="0 0 54 54">
  <g id="Group_18677" data-name="Group 18677" transform="translate(-1286 -557)">
    <g id="Ellipse_421" data-name="Ellipse 421" transform="translate(1286 557)" fill="#285fca" stroke="rgba(0,41,119,0.08)" stroke-width="1.5">
      <circle cx="27" cy="27" r="27" stroke="none"/>
      <circle cx="27" cy="27" r="26.25" fill="none"/>
    </g>
    <g id="Group_18642" data-name="Group 18642" transform="translate(668.427 752.563)">
      <path id="Path_167529" data-name="Path 167529" d="M629.829-169.176c.119-.515.206-1.04.365-1.543a5.826,5.826,0,0,1,1.539-2.406c.072-.07.138-.145.257-.27-.149-.129-.289-.245-.423-.368-.28-.257-.546-.531-.366-.954s.566-.409.943-.407c.83,0,1.659.005,2.489,0a1.46,1.46,0,0,0,.478-.079,20.824,20.824,0,0,1,9.188-1.113,19.418,19.418,0,0,1,9.418,3.394,2.942,2.942,0,0,0,1.462.5,7.445,7.445,0,0,1,5.372,2.789,3.225,3.225,0,0,1,.761,2.242c-.041.663,0,1.331-.009,2a2.054,2.054,0,0,1-2.042,2.061,1.068,1.068,0,0,0-1.134.661,3.652,3.652,0,0,1-3.591,1.965,3.763,3.763,0,0,1-3.364-2.3.46.46,0,0,0-.5-.311q-5.761.013-11.522,0a.464.464,0,0,0-.5.313,3.755,3.755,0,0,1-3.671,2.3,3.787,3.787,0,0,1-3.56-2.479c-.035-.081-.073-.188-.141-.223a2.382,2.382,0,0,1-1.143-1.833c-.119-.59-.17-1.193-.253-1.79-.014-.1-.034-.2-.051-.3Zm3.609-4.626c.249.571.2.775-.262,1.152-.087.071-.176.141-.26.216a5,5,0,0,0-1.564,2.376,9.434,9.434,0,0,0-.142,3.2c.016.3.066.591.109.958.841-1.837,2.189-2.846,4.15-2.619,2.222.257,3.341,1.695,3.574,3.88H650.8a3.963,3.963,0,0,1,1.117-2.718,3.838,3.838,0,0,1,2.677-1.2,3.757,3.757,0,0,1,2.4.709,3.947,3.947,0,0,1,1.692,3.218h.431a.822.822,0,0,0,.875-.88c0-.676.028-1.354-.011-2.027a2.718,2.718,0,0,0-.263-.984,2.938,2.938,0,0,0-.572-.754,6.4,6.4,0,0,0-4.382-1.869,2.827,2.827,0,0,1-1.576-.54,18.276,18.276,0,0,0-9.6-3.383,19.071,19.071,0,0,0-8.205,1.152,1.982,1.982,0,0,1-.629.105C634.331-173.791,633.9-173.8,633.438-173.8Zm-.977,9.187A2.633,2.633,0,0,0,635.087-162a2.646,2.646,0,0,0,2.608-2.633,2.646,2.646,0,0,0-2.631-2.61A2.63,2.63,0,0,0,632.461-164.615Zm19.671-.022a2.631,2.631,0,0,0,2.6,2.631,2.646,2.646,0,0,0,2.63-2.611,2.646,2.646,0,0,0-2.609-2.633A2.634,2.634,0,0,0,652.132-164.637Z" fill="#fff"/>
      <path id="Path_167530" data-name="Path 167530" d="M678.379-164.354h.4q2.609,0,5.219,0a2.06,2.06,0,0,1,.425.04.609.609,0,0,1,.494.616.613.613,0,0,1-.488.621,1.828,1.828,0,0,1-.395.041q-3.039,0-6.079,0c-.67,0-.9-.231-.9-.907,0-.747,0-1.494,0-2.241,0-.432.194-.7.521-.765a.659.659,0,0,1,.793.7c.017.46,0,.921,0,1.382C678.38-164.71,678.379-164.557,678.379-164.354Z" transform="translate(-34.12 -6.834)" fill="#fff"/>
    </g>
  </g>
</svg>
