<svg xmlns="http://www.w3.org/2000/svg" width="54" height="54" viewBox="0 0 54 54">
  <g id="Group_18682" data-name="Group 18682" transform="translate(-1615 -557)">
    <g id="Ellipse_426" data-name="Ellipse 426" transform="translate(1615 557)" fill="#285fca" stroke="rgba(0,41,119,0.08)" stroke-width="1.5">
      <circle cx="27" cy="27" r="27" stroke="none"/>
      <circle cx="27" cy="27" r="26.25" fill="none"/>
    </g>
    <g id="Group_18663" data-name="Group 18663" transform="translate(2370.393 227.872)">
      <path id="Path_167550" data-name="Path 167550" d="M-499.03,484.4a2.864,2.864,0,0,1-.926,1.549c-1.269,1.3-2.521,2.606-3.788,3.9a.67.67,0,0,0-.232.588c.035.313.042.63.05.946a.784.784,0,0,1-.736.868.768.768,0,0,1-.82-.781c-.039-.531-.055-1.063-.082-1.594a.944.944,0,0,1,.327-.725c1.355-1.4,2.692-2.812,4.07-4.185a1.833,1.833,0,0,0,.595-1.468c-.04-1.579-.013-3.16-.014-4.74,0-.075.024-.164-.008-.221-.049-.088-.144-.223-.206-.216a.487.487,0,0,0-.266.2c-.038.048-.016.145-.017.219-.027,1.364-.059,2.727-.077,4.091a1.239,1.239,0,0,1-.274.78q-.951,1.22-1.886,2.451a.887.887,0,0,1-.929.388c-.491-.087-.986-.15-1.475-.243a.773.773,0,0,1-.569-1.206c.416-.766.847-1.525,1.272-2.287.036-.065.1-.134.1-.2a.391.391,0,0,0-.1-.269c-.052-.04-.183,0-.263.032-.061.028-.1.11-.143.169-.9,1.183-1.811,2.362-2.7,3.556a1.238,1.238,0,0,0-.225.635c-.088,1.561-.149,3.123-.228,4.684-.028.552-.308.86-.759.876a.779.779,0,0,1-.807-.87c.028-.764.067-1.529.1-2.293.041-.856.092-1.711.123-2.566a2.287,2.287,0,0,1,.48-1.337q1.427-1.876,2.858-3.749a1.73,1.73,0,0,1,1.775-.712,1.709,1.709,0,0,1,1.4,1.268,1.793,1.793,0,0,1-.2,1.439,15.263,15.263,0,0,0-.725,1.418c.067-.085.135-.169.2-.255.426-.553.857-1.1,1.273-1.664a.706.706,0,0,0,.132-.38c.031-1.272.048-2.544.071-3.817a1.849,1.849,0,0,1,.961-1.715,1.785,1.785,0,0,1,2.6,1.078c.021.071.044.142.066.213Z" transform="translate(-216.586 -124.234)" fill="#fff" stroke="#285fca" stroke-width="0.5"/>
      <path id="Path_167551" data-name="Path 167551" d="M-735.8,485.252q-.388-.705-.776-1.41a1.836,1.836,0,0,1-.25-1.268,1.712,1.712,0,0,1,1.229-1.4,1.664,1.664,0,0,1,1.805.456,12.091,12.091,0,0,1,.816,1.038c.724.954,1.44,1.913,2.167,2.864a2.549,2.549,0,0,1,.524,1.5c.06,1.579.14,3.157.206,4.736a.771.771,0,0,1-.6.858.775.775,0,0,1-.953-.732c-.073-1.437-.157-2.874-.191-4.311a2.345,2.345,0,0,0-.522-1.5c-.825-1.032-1.6-2.1-2.4-3.158-.055-.073-.1-.167-.176-.206a.315.315,0,0,0-.265-.018.344.344,0,0,0-.089.251c0,.066.058.134.094.2.413.75.809,1.509,1.244,2.245a.826.826,0,0,1-.648,1.312c-.454.036-.9.139-1.352.217a.863.863,0,0,1-.9-.343c-.656-.859-1.328-1.706-1.968-2.577a1.256,1.256,0,0,1-.216-.667c-.046-1.38-.064-2.76-.092-4.141,0-.075.02-.17-.017-.219-.062-.084-.163-.191-.248-.191s-.166.122-.224.207c-.031.046-.009.129-.009.2,0,1.738,0,3.477,0,5.215a.889.889,0,0,0,.268.667c1.451,1.5,2.892,3.011,4.345,4.509a1.08,1.08,0,0,1,.334.9c-.037.464-.045.93-.065,1.4a.791.791,0,0,1-.807.829.778.778,0,0,1-.75-.875,3.816,3.816,0,0,1,.031-.7,1.017,1.017,0,0,0-.372-1c-1.277-1.3-2.523-2.627-3.8-3.928a2.477,2.477,0,0,1-.747-1.857c.019-1.763,0-3.526.008-5.29a1.785,1.785,0,0,1,2.4-1.745,1.84,1.84,0,0,1,1.226,1.814c.03,1.28.043,2.561.074,3.842a.7.7,0,0,0,.13.381c.487.651.987,1.292,1.483,1.937Z" transform="translate(0 -124.669)" fill="#fff" stroke="#285fca" stroke-width="0.5"/>
      <path id="Path_167552" data-name="Path 167552" d="M-660.952,349.62a5.6,5.6,0,0,1,1.438-4.1,4.243,4.243,0,0,1,4.048-1.2,5.854,5.854,0,0,1,2.066.837.324.324,0,0,0,.4,0,5.478,5.478,0,0,1,3.206-.919,4.208,4.208,0,0,1,3.841,2.722,6.306,6.306,0,0,1,.123,4.58,9.54,9.54,0,0,1-3.382,4.613,14.95,14.95,0,0,1-3.4,1.955,1.414,1.414,0,0,1-1.138.01,14.036,14.036,0,0,1-4.206-2.58,8.906,8.906,0,0,1-2.836-4.731C-660.893,350.356-660.918,349.888-660.952,349.62Zm1.566-.192a6.419,6.419,0,0,0,1.557,3.984,11.247,11.247,0,0,0,4.511,3.192.381.381,0,0,0,.276-.02c.48-.227.967-.445,1.428-.706a9.477,9.477,0,0,0,3.75-3.559,5.5,5.5,0,0,0,.621-4.365,2.851,2.851,0,0,0-3-2.149,4.528,4.528,0,0,0-2.286.912.9.9,0,0,1-1.326.007,5.311,5.311,0,0,0-1.842-.853,2.78,2.78,0,0,0-3.095,1.273A4.182,4.182,0,0,0-659.386,349.427Z" transform="translate(-75.206)" fill="#fff"/>
    </g>
  </g>
</svg>
