<svg xmlns="http://www.w3.org/2000/svg" width="54" height="54" viewBox="0 0 54 54">
  <g id="Group_18674" data-name="Group 18674" transform="translate(-1088 -557)">
    <g id="Ellipse_418" data-name="Ellipse 418" transform="translate(1088 557)" fill="#285fca" stroke="rgba(0,41,119,0.08)" stroke-width="1.5">
      <circle cx="27" cy="27" r="27" stroke="none"/>
      <circle cx="27" cy="27" r="26.25" fill="none"/>
    </g>
    <g id="Group_18639" data-name="Group 18639" transform="translate(989.62 778.056)">
      <path id="Path_167517" data-name="Path 167517" d="M114.026-207.841a1.8,1.8,0,0,1,.342.479,1.8,1.8,0,0,0,1.387,1.35c.237.058.415.172.429.443s-.109.406-.435.489a1.775,1.775,0,0,0-1.3,1.13,2.938,2.938,0,0,0-.091.309.438.438,0,0,1-.451.38c-.256,0-.37-.161-.462-.377a2.879,2.879,0,0,0-.442-.869,2.675,2.675,0,0,0-.873-.535c-.209-.093-.414-.158-.523-.375v-.269a.823.823,0,0,1,.537-.351,1.788,1.788,0,0,0,1.286-1.286,2.35,2.35,0,0,1,.33-.517Zm.4,2.293-.507-.523-.573.494.524.589Z" transform="translate(0 0)" fill="#fff"/>
      <path id="Path_167518" data-name="Path 167518" d="M149.309-185.455a13.594,13.594,0,0,1-1.657,6.346,12.507,12.507,0,0,0-1.215,3.554q-.717,3.2-1.454,6.394a2.12,2.12,0,0,1-3.242,1.363,2.3,2.3,0,0,1-1.008-1.726q-.641-3.94-1.306-7.877a1.187,1.187,0,0,0-1.182-1.074,1.184,1.184,0,0,0-1.157,1.071c-.441,2.625-.884,5.249-1.305,7.877a2.229,2.229,0,0,1-1.462,1.953,2.123,2.123,0,0,1-2.8-1.636c-.648-2.811-1.283-5.624-1.927-8.436a1.25,1.25,0,0,0-.15-.368,14.448,14.448,0,0,1-2.089-5.852,8.723,8.723,0,0,1,.069-3.368,6.414,6.414,0,0,1,4.941-4.861,6.009,6.009,0,0,1,3.623.226,6.071,6.071,0,0,0,2.506.514,5.642,5.642,0,0,0,1.743-.414,6.347,6.347,0,0,1,4.927-.008,6.368,6.368,0,0,1,4.018,5.038C149.26-186.315,149.269-185.882,149.309-185.455Zm-21.147.092a13.523,13.523,0,0,0,2.16,7.021,1.377,1.377,0,0,1,.159.424c.3,1.292.589,2.585.883,3.878q.533,2.345,1.068,4.69a1.183,1.183,0,0,0,.872.931,1.214,1.214,0,0,0,1.543-1.115c.3-1.767.585-3.537.882-5.3.171-1.016.319-2.038.539-3.043a2.027,2.027,0,0,1,2.017-1.513,2.017,2.017,0,0,1,1.956,1.518c.255,1.227.442,2.469.652,3.706.27,1.59.529,3.183.8,4.772a1.157,1.157,0,0,0,.911.985,1.22,1.22,0,0,0,1.506-1.048c.492-2.166.976-4.335,1.473-6.5a11.689,11.689,0,0,1,1.139-3.355,11.946,11.946,0,0,0,1.6-6.842,5.3,5.3,0,0,0-2.661-4.341,5.444,5.444,0,0,0-5-.439,6.944,6.944,0,0,1-2.054.5,6.308,6.308,0,0,1-2.753-.5,5.6,5.6,0,0,0-2.983-.317A5.682,5.682,0,0,0,128.162-185.363Z" transform="translate(-12.872 -12.825)" fill="#fff" stroke="#fff" stroke-width="0.6"/>
      <path id="Path_167519" data-name="Path 167519" d="M244.386-93.647c-.253.005-.41-.135-.493-.474a1.729,1.729,0,0,0-.858-1.147,2.8,2.8,0,0,0-.55-.2c-.224-.069-.39-.184-.4-.441a.441.441,0,0,1,.386-.474,1.8,1.8,0,0,0,1.445-1.451.433.433,0,0,1,.451-.379.439.439,0,0,1,.454.38,1.793,1.793,0,0,0,1.444,1.45.442.442,0,0,1,.389.446.438.438,0,0,1-.377.456,1.806,1.806,0,0,0-1.46,1.468A.441.441,0,0,1,244.386-93.647Zm.52-2.284-.52-.522-.556.517.525.545Z" transform="translate(-107.5 -90.313)" fill="#fff"/>
      <path id="Path_167520" data-name="Path 167520" d="M143.242-175.444a2.713,2.713,0,0,0-1.93,2.766h-.885a3.451,3.451,0,0,1,2.64-3.621Z" transform="translate(-23.741 -25.986)" fill="#fff"/>
      <path id="Path_167521" data-name="Path 167521" d="M161.256-176.476h.876v.887h-.876Z" transform="translate(-40.907 -25.84)" fill="#fff"/>
    </g>
  </g>
</svg>
