<svg xmlns="http://www.w3.org/2000/svg" width="54" height="54" viewBox="0 0 54 54">
  <g id="Group_18683" data-name="Group 18683" transform="translate(-1680 -557)">
    <g id="Ellipse_427" data-name="Ellipse 427" transform="translate(1680 557)" fill="#285fca" stroke="rgba(0,41,119,0.08)" stroke-width="1.5">
      <circle cx="27" cy="27" r="27" stroke="none"/>
      <circle cx="27" cy="27" r="26.25" fill="none"/>
    </g>
    <g id="Group_18665" data-name="Group 18665" transform="translate(1808.014 1490.443)">
      <path id="Path_167553" data-name="Path 167553" d="M-114.879-912.476c.047-.173.088-.348.143-.519a2.926,2.926,0,0,1,2.632-2.028c.1-.006.2-.007.3-.007q10.857,0,21.714,0a2.922,2.922,0,0,1,2.984,2.248,3.455,3.455,0,0,1,.088.807q.008,5.524,0,11.049a2.927,2.927,0,0,1-3.059,3.067c-1.025.006-2.05,0-3.075,0q-9.306,0-18.612,0a2.919,2.919,0,0,1-2.748-1.527,6.484,6.484,0,0,1-.371-1.009Zm13.942-1.374q-5.454,0-10.909,0A1.74,1.74,0,0,0-113.706-912q-.008,5.551,0,11.1a1.753,1.753,0,0,0,1.879,1.867q10.882,0,21.764,0a1.751,1.751,0,0,0,1.87-1.874q.009-5.524.008-11.047a2.423,2.423,0,0,0-.054-.566,1.736,1.736,0,0,0-1.786-1.333Q-95.482-913.853-100.937-913.851Z" transform="translate(0 0)" fill="#fff"/>
      <path id="Path_167554" data-name="Path 167554" d="M-63.661-862.519c-2.8,0-5.6,0-8.406.005a1,1,0,0,1-.81-.345c-.692-.755-1.4-1.5-2.111-2.234a.913.913,0,0,1-.27-.681q.01-2.979,0-5.958a.879.879,0,0,1,.26-.657q1.1-1.146,2.189-2.31a.857.857,0,0,1,.673-.286q8.5,0,17,0a.854.854,0,0,1,.673.288q1.078,1.17,2.173,2.326a.861.861,0,0,1,.247.635q-.008,2.993,0,5.986a.884.884,0,0,1-.266.655c-.716.746-1.429,1.494-2.131,2.253a.955.955,0,0,1-.763.329C-58.021-862.522-60.841-862.519-63.661-862.519Zm.036-11.285q-4.08,0-8.16,0a.52.52,0,0,0-.425.177c-.566.613-1.148,1.21-1.711,1.826a.654.654,0,0,0-.165.4q-.016,2.666,0,5.332a.576.576,0,0,0,.139.355q.874.951,1.775,1.878a.538.538,0,0,0,.345.153q8.173.011,16.347,0a.538.538,0,0,0,.349-.145q.911-.935,1.795-1.9a.537.537,0,0,0,.126-.333q.012-2.68,0-5.359a.621.621,0,0,0-.155-.376c-.553-.612-1.124-1.208-1.681-1.817a.542.542,0,0,0-.445-.193Q-59.56-873.8-63.626-873.8Z" transform="translate(-37.296 -37.696)" fill="#fff"/>
      <path id="Path_167555" data-name="Path 167555" d="M90.295-844.6c.02.533-.184.8-.525.831s-.588-.214-.63-.629a.987.987,0,0,0-1.013-.932.981.981,0,0,0-.941.974.979.979,0,0,0,.988.981,2.154,2.154,0,0,1,2.1,1.752,2.142,2.142,0,0,1-1.354,2.4.225.225,0,0,0-.169.259,1.527,1.527,0,0,1-.007.326.589.589,0,0,1-.582.539.547.547,0,0,1-.569-.542c.03-.4-.142-.556-.478-.73a1.985,1.985,0,0,1-1.089-1.736.579.579,0,0,1,.524-.693c.363-.027.6.2.638.616a.967.967,0,0,0,.871.924.96.96,0,0,0,1.039-.692.957.957,0,0,0-.5-1.142,1.213,1.213,0,0,0-.472-.106,2.151,2.151,0,0,1-2.071-1.755,2.156,2.156,0,0,1,1.372-2.416.386.386,0,0,0,.144-.214.972.972,0,0,0,.009-.216.586.586,0,0,1,.573-.547.536.536,0,0,1,.58.525c-.007.333.148.444.416.579A2,2,0,0,1,90.295-844.6Z" transform="translate(-189.112 -63.715)" fill="#fff"/>
    </g>
  </g>
</svg>
