<svg xmlns="http://www.w3.org/2000/svg" width="54" height="54" viewBox="0 0 54 54">
  <g id="Group_18620" data-name="Group 18620" transform="translate(-707 -611)">
    <g id="Ellipse_410" data-name="Ellipse 410" transform="translate(707 611)" fill="none" stroke="rgba(0,41,119,0.08)" stroke-width="1.5">
      <circle cx="27" cy="27" r="27" stroke="none"/>
      <circle cx="27" cy="27" r="26.25" fill="none"/>
    </g>
    <path id="Path_166161" data-name="Path 166161" d="M75.6,153.915a1.907,1.907,0,0,1-1.641.065,2.444,2.444,0,0,0-2.45-.035.3.3,0,0,0-.121.242v2.764a.289.289,0,0,0,.011.043c0,.008,0,.014,0,.023l-.006,3.368H68.373a.3.3,0,0,0-.3.3v2.763H61.763a.3.3,0,0,0-.3.3v2.637H55.153a.3.3,0,0,0-.3.3v5.352a.3.3,0,0,0,.3.3H74.983a.3.3,0,0,0,.3-.3V160.686a.3.3,0,0,0-.3-.3H72L72,157.163a1.78,1.78,0,0,1,1.371.028,3.191,3.191,0,0,0,1.325.311,2.08,2.08,0,0,0,1.215-.346.3.3,0,0,0,.118-.239V154.19a.3.3,0,0,0-.429-.274ZM61.461,171.741H55.455v-4.748h6.006Zm6.61,0H62.065v-7.688h6.006Zm6.61-10.753v10.753H68.675V160.988Zm.745-4.244a2.08,2.08,0,0,1-1.8-.1,2.317,2.317,0,0,0-.964-.21,2.509,2.509,0,0,0-.663.091v-2.156a2.137,2.137,0,0,1,1.718.165,2.42,2.42,0,0,0,1.714.1Z" transform="translate(668.559 473.327)" stroke="#000" stroke-width="0.75"/>
    <g id="Group_18584" data-name="Group 18584" transform="translate(17359.68 -6064.183)">
      <g id="Group_18583" data-name="Group 18583" transform="translate(-15983.736 6207.101)">
        <path id="Subtraction_5" data-name="Subtraction 5" d="M-635.382,490.818h-.607l.005-3.368v-.023a.227.227,0,0,1-.011-.042v-2.764a.3.3,0,0,1,.121-.242,2.448,2.448,0,0,1,1.195-.312,2.448,2.448,0,0,1,1.256.347,1.889,1.889,0,0,0,.75.154,1.921,1.921,0,0,0,.89-.22.33.33,0,0,1,.132-.028.3.3,0,0,1,.3.3v2.727a.3.3,0,0,1-.118.238,2.07,2.07,0,0,1-1.15.348h-.065a3.211,3.211,0,0,1-1.326-.311,1.77,1.77,0,0,0-.719-.151,1.774,1.774,0,0,0-.652.123v3.222Zm.662-3.952a2.335,2.335,0,0,1,.964.211,2.093,2.093,0,0,0,1,.258,2.063,2.063,0,0,0,.8-.158l0-2.11a2.426,2.426,0,0,1-.726.111,2.394,2.394,0,0,1-.987-.211,2.139,2.139,0,0,0-1.046-.273,2.132,2.132,0,0,0-.673.109v2.156A2.543,2.543,0,0,1-634.72,486.866Z" fill="#0484dc" stroke="#0484dc" stroke-width="0.75"/>
      </g>
    </g>
  </g>
</svg>
