<svg xmlns="http://www.w3.org/2000/svg" width="54" height="54" viewBox="0 0 54 54">
  <g id="Group_18681" data-name="Group 18681" transform="translate(-1542 -557)">
    <g id="Ellipse_425" data-name="Ellipse 425" transform="translate(1542 557)" fill="#285fca" stroke="rgba(0,41,119,0.08)" stroke-width="1.5">
      <circle cx="27" cy="27" r="27" stroke="none"/>
      <circle cx="27" cy="27" r="26.25" fill="none"/>
    </g>
    <g id="Group_18652" data-name="Group 18652" transform="translate(634.737 727.389)">
      <path id="Subtraction_10" data-name="Subtraction 10" d="M940.338-132.85H928.183a3.674,3.674,0,0,1-3.664-3.664v-7.753l-.753.7a.728.728,0,0,1-.5.194.737.737,0,0,1-.54-.236.726.726,0,0,1-.194-.525.726.726,0,0,1,.235-.508l1.96-1.812.007-.005,7.036-6.5a3.672,3.672,0,0,1,2.487-.967,3.672,3.672,0,0,1,2.487.967l.892.824a.736.736,0,0,1,.039,1.038.738.738,0,0,1-.539.235.733.733,0,0,1-.5-.2l-.892-.824a2.2,2.2,0,0,0-1.492-.58,2.2,2.2,0,0,0-1.491.58l-6.785,6.269v9.105a2.2,2.2,0,0,0,2.2,2.2h2.463v-5.881a2.475,2.475,0,0,1,2.469-2.469H935.4a2.475,2.475,0,0,1,2.469,2.469v5.885h2.463a2.2,2.2,0,0,0,2.2-2.2v-9.106l-.5-.466a.735.735,0,0,1-.039-1.038.738.738,0,0,1,.539-.234.732.732,0,0,1,.5.2l2.722,2.516a.739.739,0,0,1,.036,1.04.737.737,0,0,1-.538.234.731.731,0,0,1-.5-.2l-.753-.7v7.746A3.673,3.673,0,0,1,940.338-132.85Zm-7.225-8.34a1,1,0,0,0-1,1v5.882h4.29v-5.881a1,1,0,0,0-1-1Z" fill="#fff"/>
      <path id="Subtraction_11" data-name="Subtraction 11" d="M939.827-145.206a.733.733,0,0,1-.733-.733,2.7,2.7,0,0,0-1.712-2.28.693.693,0,0,1-.086-.056.712.712,0,0,1-.082-.055.727.727,0,0,1-.235-.291l-.008-.009-.048-.265a.684.684,0,0,1,.044-.237.053.053,0,0,0,0-.021.054.054,0,0,1,0-.017.73.73,0,0,1,.13-.2.115.115,0,0,0,.014-.02.127.127,0,0,1,.014-.021.834.834,0,0,1,.075-.052.721.721,0,0,1,.164-.108l.007,0a2.7,2.7,0,0,0,1.712-2.28.734.734,0,0,1,.733-.733.733.733,0,0,1,.733.733,2.7,2.7,0,0,0,1.715,2.282l.011.008a.687.687,0,0,1,.191.126.134.134,0,0,0,.02.013.1.1,0,0,1,.021.015.746.746,0,0,1,.1.148.834.834,0,0,1,.057.089l.008.014a.654.654,0,0,1,.028.158.491.491,0,0,1-.023.346.045.045,0,0,0,0,.022.06.06,0,0,1,0,.017.728.728,0,0,1-.245.3l-.16.1a2.7,2.7,0,0,0-1.712,2.28A.734.734,0,0,1,939.827-145.206Zm0-4.489a4.4,4.4,0,0,1-.785.8,4.405,4.405,0,0,1,.785.8,4.355,4.355,0,0,1,.785-.8,4.377,4.377,0,0,1-.785-.8Z" fill="#fff"/>
    </g>
  </g>
</svg>
