<svg xmlns="http://www.w3.org/2000/svg" width="54" height="54" viewBox="0 0 54 54">
  <g id="Group_18676" data-name="Group 18676" transform="translate(-1219 -557)">
    <g id="Ellipse_420" data-name="Ellipse 420" transform="translate(1219 557)" fill="#285fca" stroke="rgba(0,41,119,0.08)" stroke-width="1.5">
      <circle cx="27" cy="27" r="27" stroke="none"/>
      <circle cx="27" cy="27" r="26.25" fill="none"/>
    </g>
    <g id="Group_18641" data-name="Group 18641" transform="translate(736.109 769.717)">
      <path id="Path_167524" data-name="Path 167524" d="M499.19-120.008a.851.851,0,0,1-.507-.964c.063-.5.077-1.007.186-1.495a2.851,2.851,0,0,1,2.677-2.376,9.265,9.265,0,0,1,1.043-.062q7.3-.006,14.6,0a7.418,7.418,0,0,1,1.408.128,2.827,2.827,0,0,1,2.356,2.488c.08.432.09.877.143,1.315a.854.854,0,0,1-.508.964Zm.923-1.412H519.7c-.059-.3-.1-.579-.17-.855a1.425,1.425,0,0,0-1.189-1.129,3.883,3.883,0,0,0-.759-.091q-7.652-.009-15.305,0a4.332,4.332,0,0,0-.874.1,1.385,1.385,0,0,0-.977.685A2.845,2.845,0,0,0,500.113-121.42Z" transform="translate(0 -53.802)" fill="#fff"/>
      <path id="Path_167525" data-name="Path 167525" d="M513.184-169.941v-.718c-.476,0-.939,0-1.4,0a.655.655,0,0,1-.622-.411.6.6,0,0,1,.1-.713.911.911,0,0,1,.539-.261c1.4-.021,2.791-.015,4.186-.01a.688.688,0,0,1,.709.7.689.689,0,0,1-.718.692c-.442.007-.883.006-1.325.009-.007,0-.014.006-.037.017v.676c.485.059.971.1,1.449.179a9.176,9.176,0,0,1,5.725,3.081,7.986,7.986,0,0,1,1.834,4.295c.045.376.069.756.081,1.135a.7.7,0,0,1-.719.769c-.039,0-.078,0-.116,0q-8.966,0-17.931,0a1.187,1.187,0,0,1-.49-.1.64.64,0,0,1-.358-.63,8.276,8.276,0,0,1,5.42-7.939,11.231,11.231,0,0,1,3.528-.751C513.081-169.926,513.126-169.934,513.184-169.941Zm9.077,8.027a1.345,1.345,0,0,0,0-.137,6.639,6.639,0,0,0-4.072-5.63,10.54,10.54,0,0,0-8.023-.234,6.63,6.63,0,0,0-4.375,4.562c-.136.461-.2.943-.3,1.438Z" transform="translate(-4.006 -18.915)" fill="#fff"/>
      <path id="Path_167526" data-name="Path 167526" d="M571.237-179.045a2.029,2.029,0,0,1,.315-.51c.677-.591,1.373-1.161,2.068-1.732a.7.7,0,0,1,1,.065.7.7,0,0,1-.109,1.012c-.681.575-1.368,1.143-2.055,1.712a.678.678,0,0,1-.781.1A.825.825,0,0,1,571.237-179.045Z" transform="translate(-53.69 -11.955)" fill="#fff"/>
      <path id="Path_167527" data-name="Path 167527" d="M502.249-179.062a.791.791,0,0,1-.435.663.681.681,0,0,1-.78-.109q-.913-.757-1.822-1.519c-.1-.079-.195-.154-.284-.241a.693.693,0,0,1-.064-.948.684.684,0,0,1,.959-.116q1.093.885,2.159,1.8A1.656,1.656,0,0,1,502.249-179.062Z" transform="translate(-0.026 -11.948)" fill="#fff"/>
      <path id="Path_167528" data-name="Path 167528" d="M539.108-195.706c0-.4,0-.79,0-1.185a.7.7,0,0,1,.7-.733.7.7,0,0,1,.691.723q.007,1.2,0,2.394a.706.706,0,0,1-.7.736.71.71,0,0,1-.692-.749C539.105-194.916,539.108-195.311,539.108-195.706Z" transform="translate(-29.917 0)" fill="#fff"/>
    </g>
  </g>
</svg>
