<svg xmlns="http://www.w3.org/2000/svg" width="54" height="54" viewBox="0 0 54 54">
  <g id="Group_18614" data-name="Group 18614" transform="translate(-345 -611)">
    <g id="Group_18578" data-name="Group 18578" transform="translate(1139.076 851.63)">
      <path id="Path_167329" data-name="Path 167329" d="M-768.277-201.015c-.38-.032-.76-.066-1.139-.1a21.044,21.044,0,0,1-5.2-1,7.8,7.8,0,0,1-2.727-1.466,2.794,2.794,0,0,1-.865-1.288,2.306,2.306,0,0,1,.7-2.406,6.548,6.548,0,0,1,2.375-1.431,18.139,18.139,0,0,1,3.584-.947c.055-.009.109-.027.182-.046-.045-.08-.078-.145-.117-.206-.861-1.345-1.738-2.679-2.58-4.036a7.892,7.892,0,0,1-1.126-5.716,7.972,7.972,0,0,1,4.894-6.24,7.82,7.82,0,0,1,8.036.908,7.947,7.947,0,0,1,3.241,5.013,7.984,7.984,0,0,1-1.073,6.035c-.845,1.355-1.719,2.691-2.58,4.036-.039.061-.071.125-.117.206.5.1.979.188,1.454.3a12.07,12.07,0,0,1,3.871,1.472,3.378,3.378,0,0,1,1.487,1.689,2.186,2.186,0,0,1-.333,2.1,4.744,4.744,0,0,1-1.806,1.422,14.5,14.5,0,0,1-4.521,1.343c-1.011.147-2.033.214-3.05.319-.082.008-.163.027-.244.041Zm1.194-4.773c.071-.105.122-.178.17-.253q2.739-4.289,5.478-8.579a6.569,6.569,0,0,0,.886-5.328,6.706,6.706,0,0,0-7.87-4.993,6.4,6.4,0,0,0-4.466,3.23,6.542,6.542,0,0,0,.106,6.987c.915,1.516,1.9,2.988,2.856,4.48C-768.983-208.771-768.045-207.3-767.083-205.788Zm-.02,3.225c.54,0,1.082.022,1.621,0a19.829,19.829,0,0,0,5.409-.95,6.393,6.393,0,0,0,2.26-1.182c.611-.539.64-1.045.03-1.573a5.654,5.654,0,0,0-1.179-.779,15.42,15.42,0,0,0-4.08-1.174.84.84,0,0,0-1.03.489c-.74,1.232-1.536,2.431-2.3,3.647a.788.788,0,0,1-.85.429.847.847,0,0,1-.565-.451c-.847-1.333-1.7-2.663-2.542-4a.291.291,0,0,0-.358-.162c-.349.073-.707.1-1.058.169a11.856,11.856,0,0,0-3.8,1.238,4.807,4.807,0,0,0-1.014.793.753.753,0,0,0,0,1.136,3.157,3.157,0,0,0,.553.5,8.478,8.478,0,0,0,2.592,1.128A21.734,21.734,0,0,0-767.1-202.563Z" transform="translate(0)"/>
      <path id="Path_167330" data-name="Path 167330" d="M-651.079-149.739A3.757,3.757,0,0,1-654.836-146a3.757,3.757,0,0,1-3.733-3.763,3.757,3.757,0,0,1,3.744-3.727A3.757,3.757,0,0,1-651.079-149.739Zm-3.782,2.239a2.26,2.26,0,0,0,2.281-2.2,2.259,2.259,0,0,0-2.2-2.287,2.261,2.261,0,0,0-2.294,2.214A2.262,2.262,0,0,0-654.861-147.5Z" transform="translate(-112.254 -68.55)" fill="#0484dc"/>
    </g>
    <g id="Ellipse_404" data-name="Ellipse 404" transform="translate(345 611)" fill="none" stroke="rgba(0,41,119,0.08)" stroke-width="1.5">
      <circle cx="27" cy="27" r="27" stroke="none"/>
      <circle cx="27" cy="27" r="26.25" fill="none"/>
    </g>
  </g>
</svg>
