<svg xmlns="http://www.w3.org/2000/svg" width="54" height="54" viewBox="0 0 54 54">
  <g id="Group_18617" data-name="Group 18617" transform="translate(-525 -611)">
    <g id="Ellipse_407" data-name="Ellipse 407" transform="translate(525 611)" fill="none" stroke="rgba(0,41,119,0.08)" stroke-width="1.5">
      <circle cx="27" cy="27" r="27" stroke="none"/>
      <circle cx="27" cy="27" r="26.25" fill="none"/>
    </g>
    <g id="Group_18580" data-name="Group 18580" transform="translate(2007.788 400.307)">
      <path id="Path_167337" data-name="Path 167337" d="M-1456.437,226.676h1.291a1.135,1.135,0,0,0,.166.035,10.764,10.764,0,0,1,2.77.563,11.033,11.033,0,0,1,7.383,11.523,10.6,10.6,0,0,1-1.763,4.949,10.807,10.807,0,0,1-8.857,4.953,10.549,10.549,0,0,1-5.635-1.348.459.459,0,0,0-.4-.036c-1.368.446-2.739.881-4.107,1.325a.858.858,0,0,1-.938-.169,2.29,2.29,0,0,1-.281-.447v-.344c.01-.01.025-.018.028-.03.454-1.417.9-2.835,1.364-4.25a.48.48,0,0,0-.034-.421,10.5,10.5,0,0,1-1.2-3.472c-.059-.374-.106-.749-.158-1.124v-1.334a1.467,1.467,0,0,0,.036-.186,10.381,10.381,0,0,1,1.256-4.341,10.862,10.862,0,0,1,7.806-5.673C-1457.29,226.769-1456.861,226.733-1456.437,226.676Zm-8.173,19.833c.1-.031.164-.048.225-.068.825-.264,1.662-.5,2.471-.8a1.739,1.739,0,0,1,1.617.167,8.937,8.937,0,0,0,6.4.986,9.055,9.055,0,0,0,5.645-3.681,8.951,8.951,0,0,0,1.65-6.8,9.017,9.017,0,0,0-3.7-6.1,8.943,8.943,0,0,0-6.844-1.706,8.982,8.982,0,0,0-6.1,3.669,9.043,9.043,0,0,0-1.633,7.449,8.787,8.787,0,0,0,1.15,2.9,1.023,1.023,0,0,1,.1.943c-.072.195-.131.394-.195.591C-1464.082,244.861-1464.339,245.665-1464.61,246.509Z"/>
      <path id="Path_167338" data-name="Path 167338" d="M-1333.88,458.329a1.084,1.084,0,0,1-1.078,1.082,1.084,1.084,0,0,1-1.071-1.067,1.084,1.084,0,0,1,1.078-1.082A1.084,1.084,0,0,1-1333.88,458.329Z" transform="translate(-125.141 -220.642)" fill="#0484dc"/>
      <path id="Path_167339" data-name="Path 167339" d="M-1235.156,457.261a1.084,1.084,0,0,1,1.082,1.077,1.084,1.084,0,0,1-1.067,1.072,1.084,1.084,0,0,1-1.082-1.077A1.084,1.084,0,0,1-1235.156,457.261Z" transform="translate(-220.642 -220.642)" fill="#0484dc"/>
      <path id="Path_167340" data-name="Path 167340" d="M-1135.336,459.41a1.084,1.084,0,0,1-1.082-1.078,1.084,1.084,0,0,1,1.067-1.071,1.084,1.084,0,0,1,1.082,1.078A1.084,1.084,0,0,1-1135.336,459.41Z" transform="translate(-316.143 -220.642)" fill="#0484dc"/>
    </g>
  </g>
</svg>
