<svg xmlns="http://www.w3.org/2000/svg" width="54" height="54" viewBox="0 0 54 54">
  <g id="Group_18615" data-name="Group 18615" transform="translate(-405 -611)">
    <g id="Group_18537" data-name="Group 18537" transform="translate(419.523 625.522)">
      <path id="Path_165120" data-name="Path 165120" d="M113.057,34.154a12.479,12.479,0,1,0,8.822,3.655,12.477,12.477,0,0,0-8.822-3.655Zm0,23.655a11.194,11.194,0,1,1,7.9-3.279,11.178,11.178,0,0,1-7.9,3.279Z" transform="translate(-100.58 -34.154)" stroke="#000" stroke-width="0.75"/>
      <path id="Path_165121" data-name="Path 165121" d="M280.721,157.453v-3.565a3.848,3.848,0,0,1,1.844.842.515.515,0,1,0,.7-.755,4.684,4.684,0,0,0-2.549-1.143v-.943a.519.519,0,1,0-1.039,0v.935a3.046,3.046,0,0,0-3.015,2.886c0,1.715,1.965,2.263,3.015,2.526v3.947a6.257,6.257,0,0,1-2.366-1.067h0a.514.514,0,1,0-.727.727,6.647,6.647,0,0,0,3.088,1.378v.859h0a.519.519,0,0,0,1.039,0v-.842c1.325-.157,3.015-.935,3.015-2.7C283.773,159.168,282.672,158.05,280.721,157.453Zm-1.039-.281c-.842-.233-1.965-.623-1.965-1.457,0-1.092.963-1.684,1.965-1.844v3.3Zm1.039,5.053v-3.68c.935.337,1.965.963,1.965,2.027.036,1.145-1.235,1.507-1.965,1.637Z" transform="translate(-267.621 -145.494)" fill="#0484dc" stroke="#0484dc" stroke-width="0.5"/>
    </g>
    <g id="Ellipse_405" data-name="Ellipse 405" transform="translate(405 611)" fill="none" stroke="rgba(0,41,119,0.08)" stroke-width="1.5">
      <circle cx="27" cy="27" r="27" stroke="none"/>
      <circle cx="27" cy="27" r="26.25" fill="none"/>
    </g>
  </g>
</svg>
