<svg xmlns="http://www.w3.org/2000/svg" width="54" height="54" viewBox="0 0 54 54">
  <g id="Group_18680" data-name="Group 18680" transform="translate(-1478 -557)">
    <g id="Ellipse_424" data-name="Ellipse 424" transform="translate(1478 557)" fill="#285fca" stroke="rgba(0,41,119,0.08)" stroke-width="1.5">
      <circle cx="27" cy="27" r="27" stroke="none"/>
      <circle cx="27" cy="27" r="26.25" fill="none"/>
    </g>
    <path id="Path_167541" data-name="Path 167541" d="M944.095-122.18c0-.518,0-1.007,0-1.5a2.582,2.582,0,0,1,.689-1.84,2.489,2.489,0,0,1,1.869-.851c2.139-.012,4.278-.017,6.418,0a2.59,2.59,0,0,1,2.553,2.515c.016.459.005.918.007,1.377v.3h.313q2.127,0,4.254,0a1.583,1.583,0,0,1,1.729,1.725c0,1.312-.005,2.624,0,3.935a1.739,1.739,0,0,1-.427,1.2.551.551,0,0,0-.088.335c-.005,2.968,0,5.936-.013,8.9a2.168,2.168,0,0,1-.2.921,1.468,1.468,0,0,1-1.329.828c-.049,0-.1,0-.147,0H940a1.572,1.572,0,0,1-1.623-1.163,2.478,2.478,0,0,1-.062-.608c0-2.96,0-5.919-.009-8.879a.755.755,0,0,0-.149-.411,1.6,1.6,0,0,1-.357-.948c0-1.443-.014-2.886,0-4.328a1.549,1.549,0,0,1,1.643-1.507c1.443,0,2.885,0,4.328,0Zm-4.722,7.371v.262q0,4.229,0,8.459c0,.54.166.709.7.709h19.571c.541,0,.707-.166.707-.7q0-4.23,0-8.459v-.284H959c-.064,0-.127.009-.183.014-.015.027-.029.041-.029.055,0,.131-.006.262-.008.393a1.05,1.05,0,0,1-1.111,1.11c-.311,0-.623.007-.934,0a1.061,1.061,0,0,1-1.1-1.1c0-.152,0-.3,0-.456H944.095c0,.159,0,.305,0,.45a1.061,1.061,0,0,1-1.1,1.108c-.328.007-.656.009-.983,0a1.043,1.043,0,0,1-1.067-1.078c0-.154,0-.308,0-.478Zm1.574-1.08c0-.178,0-.325,0-.471a1.046,1.046,0,0,1,1.075-1.1q.492-.012.984,0a1.058,1.058,0,0,1,1.088,1.09c0,.153,0,.306,0,.463h11.537c0-.183-.007-.347,0-.509a1.047,1.047,0,0,1,1.034-1.041c.36-.016.722-.016,1.082,0a1.035,1.035,0,0,1,1.028,1.065c0,.161,0,.322,0,.5.541,0,1.048.006,1.555,0a.509.509,0,0,0,.546-.56c0-1.369.009-2.738-.008-4.107a.67.67,0,0,0-.22-.456.819.819,0,0,0-.484-.109q-10.3-.008-20.606,0c-.066,0-.131,0-.2,0a.5.5,0,0,0-.516.514q-.011,2.1,0,4.205a.482.482,0,0,0,.467.507C939.847-115.879,940.379-115.889,940.947-115.889Zm13.638-6.305c0-.51,0-1.008,0-1.506a1.554,1.554,0,0,0-1.56-1.621q-3.159-.027-6.319,0a1.556,1.556,0,0,0-1.564,1.617c0,.377,0,.755,0,1.132v.372h1.045c0-.462,0-.9,0-1.346,0-.561.159-.723.711-.723q2.963,0,5.926,0c.555,0,.716.161.716.718,0,.448,0,.9,0,1.358Zm-7.33,0h5.211v-1.011h-5.211Zm-5.243,5.807v2.06h1.008v-2.06Zm15.71.01H956.7v2.056h1.018Z" transform="translate(555.203 699.06)" fill="#fff"/>
  </g>
</svg>
