<svg xmlns="http://www.w3.org/2000/svg" width="54" height="54" viewBox="0 0 54 54">
  <g id="Group_18684" data-name="Group 18684" transform="translate(-1746 -557)">
    <g id="Ellipse_428" data-name="Ellipse 428" transform="translate(1746 557)" fill="#285fca" stroke="rgba(0,41,119,0.08)" stroke-width="1.5">
      <circle cx="27" cy="27" r="27" stroke="none"/>
      <circle cx="27" cy="27" r="26.25" fill="none"/>
    </g>
    <g id="Group_18666" data-name="Group 18666" transform="translate(1149.763 1413.254)">
      <path id="Path_167556" data-name="Path 167556" d="M621.363-748.879l-3.123-7.54-2.333.968q-2.123.88-4.246,1.76c-.44.182-.668.046-.734-.43a8.3,8.3,0,0,1,4.474-8.71c.044-.024.087-.051.144-.085-.1-.247-.2-.484-.293-.723a.42.42,0,0,1,.19-.592.424.424,0,0,1,.573.282c.1.228.194.459.3.709.3-.079.582-.163.871-.233a8.307,8.307,0,0,1,8.637,3.213c.265.369.2.611-.217.785q-3.171,1.319-6.344,2.634c-.078.032-.154.067-.252.109l.756,1.824q1.2,2.887,2.387,5.777a.3.3,0,0,0,.341.223,30.644,30.644,0,0,1,7.825.769,12.248,12.248,0,0,1,4.036,1.6,7.781,7.781,0,0,1,1.166,1.046.589.589,0,0,1,.085.467c-.043.2-.236.249-.434.248-.888,0-1.776,0-2.664,0h-21c-.086,0-.173,0-.259,0a.4.4,0,0,1-.324-.664,5.214,5.214,0,0,1,.835-.838,10.016,10.016,0,0,1,3.276-1.544,27.157,27.157,0,0,1,6.127-1.03C621.217-748.859,621.276-748.869,621.363-748.879Zm12.827,3.268.019-.047c-.126-.086-.249-.177-.378-.259a10.452,10.452,0,0,0-2.674-1.143,26.753,26.753,0,0,0-6.495-1,30.34,30.34,0,0,0-8.416.747,11.544,11.544,0,0,0-3.769,1.5c-.073.049-.14.107-.252.192Zm-15.5-11.891,3.235-1.343a10.219,10.219,0,0,0-2.285-2.581,4.857,4.857,0,0,0-1.916-.975,1.937,1.937,0,0,0-1.069-.012Zm-.765.317-2.042-4.928a2.839,2.839,0,0,0-1.018,1.329,7.792,7.792,0,0,0-.344,3.994c.04.311.107.619.165.947Zm-3.989-3.575a7.472,7.472,0,0,0-2.246,6.16c.694-.288,1.349-.569,2.012-.829.177-.069.207-.15.17-.324A10.013,10.013,0,0,1,613.934-760.76Zm10.989.672a7.452,7.452,0,0,0-5.926-2.76,10.4,10.4,0,0,1,3.706,3.681Z" transform="translate(0 -72.057)" fill="#fff"/>
      <path id="Path_167557" data-name="Path 167557" d="M876.081-793.774a1.658,1.658,0,0,1,1.643,1.674,1.662,1.662,0,0,1-1.682,1.637,1.66,1.66,0,0,1-1.629-1.663A1.658,1.658,0,0,1,876.081-793.774Zm-.018,2.482a.831.831,0,0,0,.832-.815.835.835,0,0,0-.809-.839.831.831,0,0,0-.844.828A.83.83,0,0,0,876.063-791.291Z" transform="translate(-245.377 -44.59)" fill="#fff"/>
      <path id="Path_167558" data-name="Path 167558" d="M893.173-840.432c0,.267.006.535,0,.8a.412.412,0,0,1-.414.436.411.411,0,0,1-.409-.441q-.009-.8,0-1.6a.408.408,0,0,1,.413-.436.412.412,0,0,1,.41.44C893.179-840.967,893.173-840.7,893.173-840.432Z" transform="translate(-262.069 0)" fill="#fff"/>
      <path id="Path_167559" data-name="Path 167559" d="M827.756-775c-.25,0-.5,0-.75,0-.3,0-.487-.168-.483-.419a.418.418,0,0,1,.47-.406q.776-.006,1.552,0a.415.415,0,0,1,.458.418.42.42,0,0,1-.47.407C828.273-775,828.014-775,827.756-775Z" transform="translate(-200.796 -61.291)" fill="#fff"/>
      <path id="Path_167560" data-name="Path 167560" d="M935.578-775.825c.267,0,.535-.006.8,0a.411.411,0,0,1,.436.414.411.411,0,0,1-.44.409q-.8.01-1.6,0a.409.409,0,0,1-.435-.414.411.411,0,0,1,.44-.409C935.043-775.831,935.31-775.825,935.578-775.825Z" transform="translate(-301.159 -61.296)" fill="#fff"/>
      <path id="Path_167561" data-name="Path 167561" d="M892.357-732.629c0-.259-.006-.518,0-.776a.411.411,0,0,1,.414-.435.411.411,0,0,1,.409.441q.01.8,0,1.6a.409.409,0,0,1-.415.435.413.413,0,0,1-.409-.441C892.352-732.077,892.357-732.353,892.357-732.629Z" transform="translate(-262.079 -100.381)" fill="#fff"/>
      <path id="Path_167562" data-name="Path 167562" d="M855.515-745.762a1.856,1.856,0,0,1-.984,1c-.3.006-.544-.336-.37-.571a3.906,3.906,0,0,1,.773-.782C855.171-746.293,855.511-746.065,855.515-745.762Z" transform="translate(-226.472 -88.898)" fill="#fff"/>
      <path id="Path_167563" data-name="Path 167563" d="M923.844-813.125c0,.358-.751,1.111-1.016,1.067a.488.488,0,0,1-.335-.225.5.5,0,0,1,.046-.425,3.515,3.515,0,0,1,.636-.634.506.506,0,0,1,.421-.051C923.717-813.347,923.792-813.185,923.844-813.125Z" transform="translate(-290.109 -26.304)" fill="#fff"/>
      <path id="Path_167564" data-name="Path 167564" d="M923.418-745.255c-.072.089-.142.253-.261.3a.5.5,0,0,1-.422-.04,4.842,4.842,0,0,1-.659-.649.372.372,0,0,1,0-.5.343.343,0,0,1,.48-.112,9.006,9.006,0,0,1,.8.793C923.388-745.428,923.387-745.364,923.418-745.255Z" transform="translate(-289.66 -88.771)" fill="#fff"/>
      <path id="Path_167565" data-name="Path 167565" d="M855.643-813.006c-.077.1-.147.261-.264.308a.506.506,0,0,1-.426-.045,4.788,4.788,0,0,1-.642-.634.366.366,0,0,1,.009-.518.351.351,0,0,1,.507-.086,8.606,8.606,0,0,1,.73.726C855.6-813.21,855.6-813.128,855.643-813.006Z" transform="translate(-226.568 -25.709)" fill="#fff"/>
    </g>
  </g>
</svg>
