<svg xmlns="http://www.w3.org/2000/svg" width="54" height="54" viewBox="0 0 54 54">
  <g id="Group_18678" data-name="Group 18678" transform="translate(-1352 -557)">
    <g id="Ellipse_422" data-name="Ellipse 422" transform="translate(1352 557)" fill="#285fca" stroke="rgba(0,41,119,0.08)" stroke-width="1.5">
      <circle cx="27" cy="27" r="27" stroke="none"/>
      <circle cx="27" cy="27" r="26.25" fill="none"/>
    </g>
    <rect id="Rectangle_1839" data-name="Rectangle 1839" width="4" height="2" transform="translate(1372.374 580.316) rotate(21)" fill="#285fca"/>
    <path id="Path_167534" data-name="Path 167534" d="M883.626-123.73a5.155,5.155,0,0,1,5.155,5.155,5.154,5.154,0,0,1-5.155,5.155,5.154,5.154,0,0,1-5.154-5.155" transform="matrix(0.996, -0.087, 0.087, 0.996, 509.07, 778.396)" fill="none" stroke="#fff" stroke-linecap="round" stroke-miterlimit="10" stroke-width="1"/>
    <path id="Path_167533" data-name="Path 167533" d="M-13498.1,9650.834l-8.368-17.922s-3.049,1.9-.966,5.973,2.225,4.915,2.225,4.915l1.838.72,3.506,7.129.6.787Z" transform="translate(14890 -9056)" fill="#285fca"/>
    <path id="Path_167532" data-name="Path 167532" d="M801.216-134.466q1.021-2.127,2.043-4.254c.229-.475.461-.95.7-1.419a.4.4,0,0,0,0-.413,11.645,11.645,0,0,1-1.354-6.138,11.9,11.9,0,0,1,5.374-9.552,11.8,11.8,0,0,1,7.344-2.052,12.157,12.157,0,0,1,11.263,9.406,12.053,12.053,0,0,1-.994,8.216.425.425,0,0,0,0,.417q1.251,2.619,2.49,5.242a1.584,1.584,0,0,1-.636,2.143,1.569,1.569,0,0,1-2.191-.717c-.606-1.221-1.2-2.449-1.794-3.674-.038-.079-.078-.157-.134-.268a12.054,12.054,0,0,1-8.56,3.528,12.052,12.052,0,0,1-8.573-3.5c-.052.1-.1.182-.139.266-.61,1.239-1.214,2.48-1.831,3.715a1.574,1.574,0,0,1-1.574.9,1.6,1.6,0,0,1-1.384-1.17c-.015-.05-.036-.1-.054-.147Zm17.729-9.856c-.532-1.12-1.049-2.248-1.576-3.37a3.821,3.821,0,0,1-.306-2.388c.041-.222.459-1.2.459-1.2a3.68,3.68,0,0,1,1.534-1.391.524.524,0,0,1,.773.251c.037.07.069.142.1.214l4.843,10.2c.04.086.083.17.133.271a11.022,11.022,0,0,0-3.187-13.04,11.012,11.012,0,0,0-14.351.342,11,11,0,0,0-2.711,12.845l.159-.315a1.434,1.434,0,0,1,1.2-.876.59.59,0,0,0,.6-.487.413.413,0,0,1,.024-.047l1.606-3.448a2.675,2.675,0,0,1-.726-3.446q.6-1.291,1.205-2.582c.166-.355.446-.483.739-.349a.537.537,0,0,1,.224.783c-.046.1-.094.208-.143.311l-.932,2,.95.443c.051-.1.09-.179.127-.257.328-.7.651-1.4.985-2.1a.518.518,0,0,1,.7-.288.518.518,0,0,1,.252.733c-.208.466-.428.926-.643,1.389l-.454.975.955.446c.367-.784.719-1.541,1.075-2.3.169-.358.444-.485.739-.35a.539.539,0,0,1,.221.788c-.429.925-.855,1.853-1.3,2.772a2.632,2.632,0,0,1-2.845,1.5.282.282,0,0,0-.233.12q-.866,1.823-1.706,3.659a.29.29,0,0,0,.022.25,1.615,1.615,0,0,1,.164,1.832c-.276.56-.545,1.124-.834,1.677a.285.285,0,0,0,.068.4,10.943,10.943,0,0,0,10.876,2.866,10.507,10.507,0,0,0,4.938-2.921c.063-.065.124-.21.094-.274-.3-.638-.6-1.273-.928-1.9a1.191,1.191,0,0,0-.991-.661.756.756,0,0,1-.714-.519c-.162-.391-.355-.769-.546-1.177Zm.165-7.147c-.094.078-.17.135-.239.2a2.6,2.6,0,0,0-.6,2.982c.894,1.96,1.813,3.91,2.728,5.861a.351.351,0,0,0,.2.175,2.515,2.515,0,0,1,1.73,1.461c1.055,2.186,2.122,4.367,3.186,6.549a1.892,1.892,0,0,0,.165.3.508.508,0,0,0,.661.147.523.523,0,0,0,.249-.631,2.17,2.17,0,0,0-.106-.241l-7.25-15.282Zm-16.258,17.794a.588.588,0,0,0,.476-.393c.524-1.065,1.058-2.126,1.577-3.194q.911-1.875,1.8-3.76a.488.488,0,0,0-.362-.723.551.551,0,0,0-.6.37q-1.69,3.433-3.376,6.867a1,1,0,0,0-.071.17A.534.534,0,0,0,802.852-133.676Zm5.423-15.353a1.524,1.524,0,0,0,.912,1.589,1.506,1.506,0,0,0,1.741-.354Z" transform="translate(564.258 729.46)" fill="#fff"/>
  </g>
</svg>
