<svg xmlns="http://www.w3.org/2000/svg" width="54" height="54" viewBox="0 0 54 54">
  <g id="Group_18675" data-name="Group 18675" transform="translate(-1153 -557)">
    <g id="Ellipse_419" data-name="Ellipse 419" transform="translate(1153 557)" fill="#285fca" stroke="rgba(0,41,119,0.08)" stroke-width="1.5">
      <circle cx="27" cy="27" r="27" stroke="none"/>
      <circle cx="27" cy="27" r="26.25" fill="none"/>
    </g>
    <g id="Group_18640" data-name="Group 18640" transform="translate(830.647 764.461)">
      <path id="Path_167522" data-name="Path 167522" d="M349.333-168.322c-2.082,0-4.164.005-6.245,0a4.145,4.145,0,0,1-4.232-3.6,8.222,8.222,0,0,1,.088-2.1c.239-2.076.509-4.147.771-6.22.188-1.487.338-2.98.586-4.457a4.14,4.14,0,0,1,3.426-3.315c.223-.035.261-.118.263-.319a4.2,4.2,0,0,1,3.32-4.16,4.123,4.123,0,0,1,.838-.094c.794-.012,1.588-.016,2.382,0a4.2,4.2,0,0,1,4.164,4.166c0,.281.072.374.36.431a4.272,4.272,0,0,1,3.45,3.962c.235,2.076.514,4.147.773,6.22.2,1.583.416,3.165.589,4.751a4.216,4.216,0,0,1-4.234,4.74h-6.3Zm.011-1.694c2.073,0,4.146,0,6.219,0a2.5,2.5,0,0,0,2.615-2.807c-.1-1.22-.289-2.433-.44-3.649-.31-2.485-.633-4.967-.928-7.454a2.56,2.56,0,0,0-2.245-2.431,11.587,11.587,0,0,0-1.48-.028q-4.313,0-8.627,0a2.509,2.509,0,0,0-2.533,2.174c-.122.793-.208,1.591-.308,2.386-.347,2.764-.7,5.528-1.032,8.293a5.178,5.178,0,0,0-.042,1.471,2.475,2.475,0,0,0,2.556,2.043C345.18-170.011,347.262-170.016,349.344-170.016Zm3.65-18.077a2.52,2.52,0,0,0-2.465-2.8c-.8-.021-1.6-.007-2.405,0a2.332,2.332,0,0,0-1.485.544,2.5,2.5,0,0,0-.948,2.257Z" transform="translate(0 0)" fill="#fff"/>
      <path id="Path_167523" data-name="Path 167523" d="M362.071-157.619c0-.229-.005-.458,0-.688a.849.849,0,0,1,.837-.849.856.856,0,0,1,.854.861,13.3,13.3,0,0,0,.055,1.556,2.5,2.5,0,0,0,2.587,2.1,2.54,2.54,0,0,0,2.436-2.456c.011-.388,0-.776,0-1.164a.853.853,0,0,1,.843-.9.849.849,0,0,1,.848.892,8.337,8.337,0,0,1-.143,2.182,4.25,4.25,0,0,1-4.255,3.138,4.228,4.228,0,0,1-4.022-3.673c-.043-.331-.043-.667-.063-1Z" transform="translate(-16.961 -24.41)" fill="#fff"/>
    </g>
  </g>
</svg>
