<svg xmlns="http://www.w3.org/2000/svg" width="54" height="54" viewBox="0 0 54 54">
  <g id="Group_18623" data-name="Group 18623" transform="translate(-892 -611)">
    <g id="Ellipse_413" data-name="Ellipse 413" transform="translate(892 611)" fill="none" stroke="rgba(0,41,119,0.08)" stroke-width="1.5">
      <circle cx="27" cy="27" r="27" stroke="none"/>
      <circle cx="27" cy="27" r="26.25" fill="none"/>
    </g>
    <g id="Group_18587" data-name="Group 18587" transform="translate(1435.337 180.394)">
      <path id="Path_167355" data-name="Path 167355" d="M-523.593,462.915l-1.184-.08c.181-.444.351-.863.523-1.282.421-1.021.847-2.041,1.259-3.066a.505.505,0,0,0,0-.34c-.155-.4-.322-.805-.5-1.2a.457.457,0,0,1,.009-.426c.157-.341.3-.687.452-1.032a2.387,2.387,0,0,0,.077-.242,5.838,5.838,0,0,1-2.336-1.128v-.081l3.114-1.355c-.106-.646-.217-1.286-.316-1.928-.227-1.472-.467-2.943-.667-4.419a2.715,2.715,0,0,1,2.926-2.978,4.577,4.577,0,0,1,1.133.357q3.878,1.562,7.747,3.142c.876.356,1.745.728,2.621,1.085a1.089,1.089,0,0,0,.358.061c.6.027,1.2,0,1.8.078a1.3,1.3,0,0,1,1.166,1.754c-.275.933-.625,1.846-.986,2.75-.324.811-.709,1.6-1.065,2.395a.291.291,0,0,1-.383.2c-2.359-.469-4.721-.924-7.082-1.385-.8-.156-1.6-.321-2.4-.47a.353.353,0,0,0-.26.078c-.262.227-.51.47-.765.706a4.722,4.722,0,0,1-3.055,1.224,2.474,2.474,0,0,1-.345.028.416.416,0,0,0-.479.347c-.1.308-.253.6-.368.9a.442.442,0,0,0,0,.282c.135.388.3.767.424,1.158a.757.757,0,0,1,.005.46c-.327.887-.674,1.767-1.018,2.648-.1.261-.216.518-.338.808.2.01.374.021.549.028.592.025,1.185.053,1.777.069a1.84,1.84,0,0,0,.473-.047.773.773,0,0,0,.418-1.276l-.118-.141a.855.855,0,0,1,.681.818,4.757,4.757,0,0,1-.03.649c-.019.227-.017.436.226.557a4.387,4.387,0,0,1,1.678,1.683c.339.529.656,1.074,1.034,1.573a2.882,2.882,0,0,0,1.55.942,6.484,6.484,0,0,1-1.812-2.529c.038-.026.065-.049.1-.066a7.7,7.7,0,0,0,3.685-4.655c.124-.391.19-.8.277-1.2a1.116,1.116,0,0,0-.326-1.071c-.349-.357-.692-.72-1.048-1.07a.241.241,0,0,1-.065-.32c.135-.287.257-.58.389-.868a.258.258,0,0,1,.318-.153c1.023.186,2.05.353,3.072.55.936.18,1.866.4,2.8.585a.407.407,0,0,1,.372.365c.378,1.863.77,3.722,1.158,5.583.084.4.177.806.24,1.212a.842.842,0,0,1-.059.45c-.254.566-.529,1.124-.8,1.683-.05.1-.118.2-.207.342-.1-.208-.2-.373-.273-.547-.295-.7-.58-1.4-.874-2.1a.676.676,0,0,1,.128-.788,2.5,2.5,0,0,0,.534-1.766,2.687,2.687,0,0,0-.742-1.914,1.26,1.26,0,0,0-1.961.057,2.43,2.43,0,0,0-.676,1.6c-.044,1.722-.088,3.443-.152,5.164a17.393,17.393,0,0,1-.177,2.247A6.782,6.782,0,0,1-513,470.8a8.085,8.085,0,0,1-7.074,3,10.307,10.307,0,0,1-4.774-1.681,14.963,14.963,0,0,1-2.554-2.05l.666-.441a10.387,10.387,0,0,0,2.74-2.565.327.327,0,0,1,.469-.1,3.381,3.381,0,0,0,2.166.141,1.781,1.781,0,0,0,.258-.088v-.077a4.794,4.794,0,0,0-.509-.061,2.507,2.507,0,0,1-1.31-.4,2.245,2.245,0,0,1-.931-2.974C-523.784,463.315-523.69,463.136-523.593,462.915Zm1.191-16.874a.654.654,0,0,0,0,.081c.238,1.248.475,2.5.721,3.744a.245.245,0,0,0,.161.136c.308.077.618.145.93.208q5,1.012,10,2.019c1.005.2,2.014.385,3.023.569.07.012.2-.03.222-.08q.619-1.525,1.209-3.061a.4.4,0,0,0-.039-.3,1.044,1.044,0,0,0-.945-.584c-.542,0-1.085,0-1.627-.017a1.076,1.076,0,0,1-.377-.072c-2.8-1.158-5.6-2.329-8.4-3.478-.853-.35-1.717-.685-2.6-.955A1.864,1.864,0,0,0-522.4,446.041Z"/>
      <path id="Path_167357" data-name="Path 167357" d="M-493.03,490.56c.083.355.169.673.231,1,.111.582.208,1.166.309,1.75a.7.7,0,0,1-.159.561,15.145,15.145,0,0,1-3.759,3.62A13.866,13.866,0,0,1-502,499.7c-.582.094-1.17.149-1.756.221l-.021-.085a1.244,1.244,0,0,1,.131-.068,9.785,9.785,0,0,0,3.407-2.1,9.2,9.2,0,0,1,1.882-1.315,12.274,12.274,0,0,0,4.782-4.838c.153-.287.3-.574.457-.861A.686.686,0,0,1-493.03,490.56Z" transform="translate(-12.793 -25.568)"/>
      <path id="Path_167358" data-name="Path 167358" d="M-509.754,473.038c-.52-.21-1.038-.426-1.562-.625a.481.481,0,0,0-.32,0c-.591.233-1.177.478-1.762.727a1.217,1.217,0,0,1-1.007-.023,1.2,1.2,0,0,1-.638-1.059,3.32,3.32,0,0,1,.4.148,1.515,1.515,0,0,0,1.376.022c.582-.253,1.177-.476,1.761-.727a.311.311,0,0,1,.4.078c.47.459.95.907,1.427,1.36Z" transform="translate(-6.692 -15.226)"/>
      <path id="Path_167359" data-name="Path 167359" d="M-510.81,476.688c-.805,0-1.585.013-2.364-.007-.281-.007-.392-.189-.451-.607a3.228,3.228,0,0,1,.437-.067c.658-.015,1.316-.016,1.974-.029a.188.188,0,0,1,.218.155C-510.941,476.32-510.873,476.5-510.81,476.688Z" transform="translate(-7.46 -17.672)"/>
      <path id="Path_167360" data-name="Path 167360" d="M-513.132,451.654c.083-.431.164-.812.225-1.2a.332.332,0,0,0-.078-.253c-.276-.275-.566-.535-.889-.834.4-.05.766-.1,1.133-.135a.327.327,0,0,0,.322-.222c.144-.346.312-.681.486-1.054.175.376.347.72.494,1.074a.3.3,0,0,0,.293.2c.371.036.742.085,1.154.134-.312.29-.592.558-.88.817a.245.245,0,0,0-.1.275c.087.378.152.762.234,1.189-.359-.2-.688-.368-1-.562a.324.324,0,0,0-.391,0C-512.445,451.28-512.77,451.451-513.132,451.654Z" transform="translate(-7.325 -2.5)" fill="#0484dc"/>
    </g>
  </g>
</svg>
