<svg xmlns="http://www.w3.org/2000/svg" width="54" height="54" viewBox="0 0 54 54">
  <g id="Group_18622" data-name="Group 18622" transform="translate(-832 -611)">
    <g id="Ellipse_412" data-name="Ellipse 412" transform="translate(832 611)" fill="none" stroke="rgba(0,41,119,0.08)" stroke-width="1.5">
      <circle cx="27" cy="27" r="27" stroke="none"/>
      <circle cx="27" cy="27" r="26.25" fill="none"/>
    </g>
    <g id="Group_18586" data-name="Group 18586" transform="translate(1523.719 162.688)">
      <path id="Subtraction_6" data-name="Subtraction 6" d="M-662.58,487.79h-4.277a.781.781,0,0,1-.778-.777v-2.091a9.977,9.977,0,0,1-1.82-.755l-1.472,1.48a.785.785,0,0,1-.554.23.77.77,0,0,1-.552-.23l-3.022-3.022a.781.781,0,0,1,0-1.1l1.479-1.485a10.1,10.1,0,0,1-.754-1.808h-2.09a.772.772,0,0,1-.55-.229.775.775,0,0,1-.227-.553v-4.272a.782.782,0,0,1,.777-.783h2.09a10.119,10.119,0,0,1,.754-1.812l-1.479-1.478a.78.78,0,0,1,0-1.1l3.022-3.024a.778.778,0,0,1,.552-.23.776.776,0,0,1,.554.23l1.472,1.473a10.149,10.149,0,0,1,1.82-.749v-2.088a.774.774,0,0,1,.226-.552.776.776,0,0,1,.551-.231h4.277a.782.782,0,0,1,.777.783v2.089a10.185,10.185,0,0,1,1.814.749l1.478-1.474a.778.778,0,0,1,.552-.23.776.776,0,0,1,.554.23l3.023,3.02a.784.784,0,0,1,0,1.1l-1.479,1.481a10.191,10.191,0,0,1,.748,1.813h2.1a.783.783,0,0,1,.777.783v4.279a.781.781,0,0,1-.78.777h-2.093a10.226,10.226,0,0,1-.754,1.808l1.485,1.485a.784.784,0,0,1,0,1.1l-3.022,3.022a.781.781,0,0,1-.554.23.772.772,0,0,1-.552-.23l-1.479-1.481a10.071,10.071,0,0,1-1.814.755v2.091A.781.781,0,0,1-662.58,487.79Zm-7.054-5.309a.783.783,0,0,1,.409.115,8.5,8.5,0,0,0,2.55,1.058.78.78,0,0,1,.6.76v1.82h2.715v-1.829a.779.779,0,0,1,.6-.76,8.553,8.553,0,0,0,2.556-1.051.777.777,0,0,1,.412-.118.776.776,0,0,1,.549.226l1.284,1.29,1.918-1.918-1.291-1.3a.778.778,0,0,1-.11-.961,8.553,8.553,0,0,0,1.06-2.55.777.777,0,0,1,.76-.6h1.819v-2.716h-1.824a.777.777,0,0,1-.754-.6,8.577,8.577,0,0,0-1.06-2.552.777.777,0,0,1,.116-.961l1.284-1.284-1.918-1.918-1.291,1.29a.774.774,0,0,1-.549.226.778.778,0,0,1-.412-.118,8.567,8.567,0,0,0-2.553-1.062.776.776,0,0,1-.6-.76v-1.818h-2.711l-.005,1.825a.778.778,0,0,1-.6.76,8.562,8.562,0,0,0-2.556,1.052.779.779,0,0,1-.408.116.773.773,0,0,1-.553-.23l-1.284-1.283-1.922,1.916,1.288,1.284a.775.775,0,0,1,.118.966,8.539,8.539,0,0,0-1.062,2.556.779.779,0,0,1-.759.6h-1.821v2.72h1.823a.778.778,0,0,1,.76.6A8.538,8.538,0,0,0-672,479.833a.779.779,0,0,1-.11.961l-1.288,1.288,1.922,1.918,1.29-1.291A.774.774,0,0,1-669.634,482.481Z"/>
      <path id="Subtraction_7" data-name="Subtraction 7" d="M-661.2,480.756h-7.039a.78.78,0,0,1-.777-.777v-1.226a4.324,4.324,0,0,1,2.093-3.685,3.044,3.044,0,0,1-.869-2.142,3.067,3.067,0,0,1,3.062-3.057h.007a3.1,3.1,0,0,1,3.075,3.073,3.033,3.033,0,0,1-.869,2.125,4.325,4.325,0,0,1,2.094,3.685v1.227A.781.781,0,0,1-661.2,480.756Zm-3.571-4.744a2.718,2.718,0,0,0-2.687,2.741v.443h5.476v-.485a2.729,2.729,0,0,0-2.721-2.7h-.068Zm.025-4.584a1.493,1.493,0,0,0-1.056.451,1.487,1.487,0,0,0-.429,1.064,1.514,1.514,0,0,0,1.51,1.51h.005a1.514,1.514,0,0,0,1.508-1.516,1.517,1.517,0,0,0-1.513-1.508Z" fill="#0484dc"/>
    </g>
  </g>
</svg>
