<svg xmlns="http://www.w3.org/2000/svg" width="54" height="54" viewBox="0 0 54 54">
  <g id="Group_18618" data-name="Group 18618" transform="translate(-586 -611)">
    <g id="Group_17284" data-name="Group 17284" transform="translate(11705.283 -4554.992)">
      <path id="Path_165466" data-name="Path 165466" d="M123.927,61.6H104.57a.969.969,0,0,0-.968.968V80.475h21.293V62.57A.969.969,0,0,0,123.927,61.6Zm.242,18.147H104.328V62.57a.242.242,0,0,1,.242-.242h19.357a.242.242,0,0,1,.242.242Z" transform="translate(-11206.531 5121.953)" stroke="#000001" stroke-width="0.5"/>
      <path id="Path_165467" data-name="Path 165467" d="M162.9,131.6H145.964a.363.363,0,1,0,0,.726H162.9a.363.363,0,0,0,0-.726Z" transform="translate(-11246.717 5054.979)" stroke="#000001" stroke-width="0.5"/>
      <path id="Path_165468" data-name="Path 165468" d="M154.6,98.3a.3.3,0,1,1-.3-.3.3.3,0,0,1,.3.3" transform="translate(-11254.752 5087.128)" stroke="#000001" stroke-width="0.5"/>
      <path id="Path_165469" data-name="Path 165469" d="M182.6,98.3a.3.3,0,1,1-.3-.3.3.3,0,0,1,.3.3" transform="translate(-11281.542 5087.128)" stroke="#000001" stroke-width="0.5"/>
      <path id="Path_165470" data-name="Path 165470" d="M210.6,98.3a.3.3,0,1,1-.3-.3.3.3,0,0,1,.3.3" transform="translate(-11308.332 5087.128)" stroke="#000001" stroke-width="0.5"/>
      <path id="Path_165471" data-name="Path 165471" d="M196.558,192.7a9.375,9.375,0,0,0-6.673,2.764l-.257.257,3.08,3.08.257-.257a5.089,5.089,0,0,1,5.982-.894l-1.737,2.233a1.575,1.575,0,1,0,.573.445l1.777-2.284a5.154,5.154,0,0,1,.591.5l.257.257,3.08-3.08-.257-.257a9.375,9.375,0,0,0-6.673-2.764Zm0,9.459a.847.847,0,1,1,.847-.847A.848.848,0,0,1,196.558,202.159Zm3.842-4.377c-.126-.112-.257-.216-.391-.316l1.07-1.376a.363.363,0,1,0-.573-.446l-1.111,1.428a5.8,5.8,0,0,0-6.679.709l-2.056-2.056a8.712,8.712,0,0,1,11.8,0Z" transform="translate(-11288.842 4996.52)" fill="#0484dc" stroke="#0484dc" stroke-width="0.5"/>
    </g>
    <g id="Ellipse_408" data-name="Ellipse 408" transform="translate(586 611)" fill="none" stroke="rgba(0,41,119,0.08)" stroke-width="1.5">
      <circle cx="27" cy="27" r="27" stroke="none"/>
      <circle cx="27" cy="27" r="26.25" fill="none"/>
    </g>
  </g>
</svg>
