<svg xmlns="http://www.w3.org/2000/svg" width="54" height="54" viewBox="0 0 54 54">
  <g id="Group_18621" data-name="Group 18621" transform="translate(-769 -611)">
    <g id="Group_18577" data-name="Group 18577" transform="translate(1635.641 64.092)">
      <path id="Path_167325" data-name="Path 167325" d="M-838.865,586.386h-1.56c-.16-.02-.319-.042-.479-.06a12.1,12.1,0,0,1-6.913-3.014A12.134,12.134,0,0,1-852,572.244a11.957,11.957,0,0,1,4.614-8.1,12.135,12.135,0,0,1,8.989-2.646,11.994,11.994,0,0,1,6.6,2.731,12.279,12.279,0,0,1,4.433,7.532c.082.454.129.914.192,1.371v1.56c-.038.3-.071.61-.114.914a12.273,12.273,0,0,1-3.032,6.572,12.276,12.276,0,0,1-7.158,4.018C-837.933,586.275-838.4,586.322-838.865,586.386Zm-.774-23.4a10.936,10.936,0,0,0-10.923,10.9,10.938,10.938,0,0,0,10.911,10.937,10.936,10.936,0,0,0,10.923-10.9A10.935,10.935,0,0,0-839.638,562.989Z"/>
      <path id="Path_167326" data-name="Path 167326" d="M-759.941,791.176a8.4,8.4,0,0,1-6.1-3.087.784.784,0,0,1,.027-1.166.786.786,0,0,1,1.157.154,6.966,6.966,0,0,0,5.884,2.523A6.88,6.88,0,0,0-754,787.118a.854.854,0,0,1,.822-.367.778.778,0,0,1,.447,1.285,8.536,8.536,0,0,1-3.062,2.354A9.267,9.267,0,0,1-759.941,791.176Z" transform="translate(-80.238 -210.634)" fill="#0484dc"/>
      <path id="Path_167327" data-name="Path 167327" d="M-628.235,681.821c0,.134,0,.239,0,.345a.784.784,0,0,1-.769.784.792.792,0,0,1-.788-.769c-.008-.17.01-.342-.007-.511a.56.56,0,0,0-.1-.286,1.048,1.048,0,0,0-1.427-.007.6.6,0,0,0-.116.307c-.019.168,0,.341-.008.511a.779.779,0,0,1-.7.751.747.747,0,0,1-.819-.578,2.223,2.223,0,0,1,.7-2.251,2.467,2.467,0,0,1,1.23-.546,2.567,2.567,0,0,1,1.779.341A1.989,1.989,0,0,1-628.235,681.821Z" transform="translate(-204.827 -110.417)"/>
      <path id="Path_167328" data-name="Path 167328" d="M-761.83,681.854a2.323,2.323,0,0,1,3.057-2.219,2.145,2.145,0,0,1,1.717,2.205,2.391,2.391,0,0,1-.041.555.761.761,0,0,1-.808.563.781.781,0,0,1-.706-.744,4.382,4.382,0,0,1,0-.463.511.511,0,0,0-.306-.509,1.1,1.1,0,0,0-.873-.077.574.574,0,0,0-.481.655c0,.138.007.277,0,.414a.791.791,0,0,1-.8.728.783.783,0,0,1-.752-.776C-761.833,682.072-761.83,681.958-761.83,681.854Z" transform="translate(-84.397 -110.429)"/>
    </g>
    <g id="Ellipse_411" data-name="Ellipse 411" transform="translate(769 611)" fill="none" stroke="rgba(0,41,119,0.08)" stroke-width="1.5">
      <circle cx="27" cy="27" r="27" stroke="none"/>
      <circle cx="27" cy="27" r="26.25" fill="none"/>
    </g>
  </g>
</svg>
