<svg xmlns="http://www.w3.org/2000/svg" width="54" height="54" viewBox="0 0 54 54">
  <g id="Group_18624" data-name="Group 18624" transform="translate(-955 -611)">
    <g id="Ellipse_414" data-name="Ellipse 414" transform="translate(955 611)" fill="none" stroke="rgba(0,41,119,0.08)" stroke-width="1.5">
      <circle cx="27" cy="27" r="27" stroke="none"/>
      <circle cx="27" cy="27" r="26.25" fill="none"/>
    </g>
    <g id="Group_18588" data-name="Group 18588" transform="translate(17361.412 -6092)">
      <path id="Path_167364" data-name="Path 167364" d="M-289.937,418.987a3.364,3.364,0,0,0,3.364-3.364,3.364,3.364,0,0,0-3.364-3.364Z" transform="translate(-16080.452 6313.185)" fill="#0484dc"/>
      <path id="Subtraction_8" data-name="Subtraction 8" d="M-250.134,350.965a1.025,1.025,0,0,1-.913-.567l-2.352-4.641a1.015,1.015,0,0,1-.112-.468v-2.183h-2.676a3.51,3.51,0,0,1-2.494-1.035,3.508,3.508,0,0,1-1.034-2.494v-1.958a3.508,3.508,0,0,1,1.034-2.493,3.51,3.51,0,0,1,2.494-1.035h2.693a.825.825,0,0,1,.782-.7c.865,0,1.6.008,2.255.015h.043c.491.005.915.01,1.3.01a7.315,7.315,0,0,0,3.07-.419,15.853,15.853,0,0,0,3.073-2.128l0,0,.007-.005c.585-.46,1.249-.98,2.059-1.6a.744.744,0,0,1,.457-.158.736.736,0,0,1,.423.133.886.886,0,0,1,.376.749v17.228a.889.889,0,0,1-.376.75.736.736,0,0,1-.423.133.743.743,0,0,1-.457-.158c-.779-.6-1.425-1.1-1.994-1.548l-.072-.056c-2.5-1.964-3.095-2.43-5.042-2.526a.88.88,0,0,1,.016.164v.873a.867.867,0,0,1-.865.865h-.368l1.9,3.75a1.039,1.039,0,0,1-.456,1.393,1.044,1.044,0,0,1-.467.112h-1.886Zm.013-.878h1.884a.14.14,0,0,0,.123-.073.144.144,0,0,0,.006-.153v0l-2.078-4.1a1.016,1.016,0,0,1-.112-.469v-1.34c-.651.008-1.421.017-2.329.017v1.324a.137.137,0,0,0,.018.073l2.352,4.641a.147.147,0,0,0,.132.085Zm1.011-7.185a8.151,8.151,0,0,1,3.368.451,16.77,16.77,0,0,1,3.324,2.284l.08.063c.524.411,1.117.876,1.817,1.414l0-17.028c-.7.535-1.29,1-1.812,1.408l-.085.066a16.671,16.671,0,0,1-3.325,2.286,8.172,8.172,0,0,1-3.369.45c-.388,0-.82,0-1.305-.01-.7-.008-1.393-.015-2.208-.015v8.656h.055c.751,0,1.408-.007,1.987-.013l.166,0h.07C-249.886,342.906-249.485,342.9-249.11,342.9Zm.239,1.069h0l-.547.009v.848h.563l-.015-.857Zm-7.315-9a2.654,2.654,0,0,0-2.647,2.647v1.958a2.653,2.653,0,0,0,2.647,2.647v0h2.676v-7.255Z" transform="translate(-16132.152 6389.966)" stroke="#000" stroke-width="0.25"/>
    </g>
  </g>
</svg>
