<svg xmlns="http://www.w3.org/2000/svg" width="54" height="54" viewBox="0 0 54 54">
  <g id="Group_18613" data-name="Group 18613" transform="translate(-286 -611)">
    <g id="Ellipse_364" data-name="Ellipse 364" transform="translate(286 611)" fill="none" stroke="rgba(0,41,119,0.08)" stroke-width="1.5">
      <circle cx="27" cy="27" r="27" stroke="none"/>
      <circle cx="27" cy="27" r="26.25" fill="none"/>
    </g>
    <path id="Path_166160" data-name="Path 166160" d="M96.724,28.255l2.807,6.262,6.824.735a.5.5,0,0,1,.258.889l-5.064,4.583,1.41,6.718a.5.5,0,0,1-.738.536h0l-5.953-3.417-5.953,3.417a.5.5,0,0,1-.733-.565l1.4-6.69L85.9,36.118a.5.5,0,0,1-.035-.706.494.494,0,0,1,.317-.161h0L93,34.515l2.807-6.262a.5.5,0,0,1,.913,0Zm2.012,6.932-2.468-5.506-2.459,5.485a.5.5,0,0,1-.413.315l-6,.646,4.451,4.028a.5.5,0,0,1,.178.494l-1.24,5.905,5.226-3a.5.5,0,0,1,.5,0l5.233,3-1.24-5.905h0a.5.5,0,0,1,.154-.472l4.475-4.049-6-.646h0a.5.5,0,0,1-.4-.293Z" transform="translate(216.732 597.727)" stroke="#000" stroke-width="0.75"/>
    <g id="Group_18581" data-name="Group 18581" transform="translate(17362 -6094.272)">
      <path id="Path_167331" data-name="Path 167331" d="M-1446.591-95.84a1.083,1.083,0,0,1,.768-.613c.33-.089.652-.206.977-.309a.783.783,0,0,1,1.076.446.775.775,0,0,1-.577,1.008c-.341.117-.686.224-1.029.335-.638.206-.891.109-1.215-.467Z" transform="translate(-15617.028 6831.03)" fill="#0484dc"/>
      <path id="Path_167333" data-name="Path 167333" d="M-1263.569,23.775c0,.247.018.5,0,.74a.739.739,0,0,1-.763.693.732.732,0,0,1-.749-.706c-.023-.5-.023-1.007,0-1.509a.731.731,0,0,1,.749-.706.743.743,0,0,1,.767.72c.019.255,0,.513,0,.769Z" transform="translate(-15784.67 6721.009)" fill="#0484dc"/>
      <path id="Path_167334" data-name="Path 167334" d="M-1098.052-95.794a.773.773,0,0,1-.968.78c-.466-.131-.927-.283-1.382-.447a.758.758,0,0,1-.482-.944.735.735,0,0,1,.893-.52,14.383,14.383,0,0,1,1.489.481A.7.7,0,0,1-1098.052-95.794Z" transform="translate(-15936.329 6831.147)" fill="#0484dc"/>
      <path id="Path_167335" data-name="Path 167335" d="M-1376.4-304.95a2.089,2.089,0,0,1,.5.35,12.4,12.4,0,0,1,.81,1.1.759.759,0,0,1-.171,1.085.753.753,0,0,1-1.063-.175c-.289-.377-.567-.763-.835-1.155a.726.726,0,0,1-.025-.809A.858.858,0,0,1-1376.4-304.95Z" transform="translate(-15681.036 7023.278)" fill="#0484dc"/>
      <path id="Path_167336" data-name="Path 167336" d="M-1164.09-302.869a3.048,3.048,0,0,1,.212-.455c.24-.354.494-.7.751-1.041a.77.77,0,0,1,1.121-.214.776.776,0,0,1,.127,1.116c-.263.373-.528.745-.809,1.1a.732.732,0,0,1-.871.24A.879.879,0,0,1-1164.09-302.869Z" transform="translate(-15877.976 7023.081)" fill="#0484dc"/>
    </g>
  </g>
</svg>
