<svg xmlns="http://www.w3.org/2000/svg" width="54" height="54" viewBox="0 0 54 54">
  <g id="Group_18679" data-name="Group 18679" transform="translate(-1414 -557)">
    <g id="Ellipse_423" data-name="Ellipse 423" transform="translate(1414 557)" fill="#285fca" stroke="rgba(0,41,119,0.08)" stroke-width="1.5">
      <circle cx="27" cy="27" r="27" stroke="none"/>
      <circle cx="27" cy="27" r="26.25" fill="none"/>
    </g>
    <g id="Group_18643" data-name="Group 18643" transform="translate(527.224 699.472)">
      <path id="Path_167535" data-name="Path 167535" d="M923.776-113.4c.761,0,1.475-.043,2.18.011.812.062,1.62.2,2.426.324a.49.49,0,0,1,.43.709A9.841,9.841,0,0,1,921.922-106a12.907,12.907,0,0,1-5.3.169c-.875-.141-1.731-.4-2.6-.586a1.123,1.123,0,0,0-.541.015,15.715,15.715,0,0,1-6.234.678,9.583,9.583,0,0,1-7.873-5.257c-.218-.4-.4-.827-.588-1.248-.213-.487-.059-.76.453-.859a20.869,20.869,0,0,1,4.216-.382h.28c-.026-.1-.041-.174-.067-.247a14.326,14.326,0,0,1-.677-6.255c.049-.531.129-1.06.209-1.587.074-.492.318-.64.793-.5a17.751,17.751,0,0,1,4.688,2.154c.094.061.192.116.316.19.054-.151.1-.277.143-.4a17.979,17.979,0,0,1,4.3-6.5c.25-.255.48-.239.8.031a15.6,15.6,0,0,1,4.117,5.326c.2.414.367.841.562,1.291.106-.059.2-.111.3-.17a17.769,17.769,0,0,1,4.317-1.918c.5-.148.728-.007.813.507a15.843,15.843,0,0,1-.261,7.187C924-114.068,923.9-113.784,923.776-113.4Zm-23.853,1.2a1.037,1.037,0,0,0,.037.16,8.739,8.739,0,0,0,5.565,4.993,11.723,11.723,0,0,0,5.041.269c.844-.121,1.676-.328,2.5-.493a.6.6,0,0,0,0-.136c-.041-.1-.081-.193-.128-.287a7.88,7.88,0,0,0-4.49-3.939A17.062,17.062,0,0,0,899.923-112.2Zm27.724.006c-.472-.06-.9-.125-1.337-.168a16.686,16.686,0,0,0-6.474.477,8.13,8.13,0,0,0-5.217,4.165c-.059.119-.112.24-.175.376.131.042.228.076.328.1a14.747,14.747,0,0,0,4.055.6,8.851,8.851,0,0,0,8.663-5.209C927.54-111.946,927.582-112.05,927.647-112.2Zm-14.71,2.589c.091-.819.185-1.6.261-2.393a1.617,1.617,0,0,0-.033-.579,10.2,10.2,0,0,0-2.478-4.413,15.813,15.813,0,0,0-6.356-3.9,2.155,2.155,0,0,0-.241-.05c-.056.684-.129,1.339-.157,2a12.389,12.389,0,0,0,.811,5.229.462.462,0,0,0,.444.342,16.863,16.863,0,0,1,1.889.3,9.926,9.926,0,0,1,5.458,3C912.673-109.924,912.8-109.763,912.937-109.606Zm1.677-.007c.056-.066.123-.142.188-.221a8.24,8.24,0,0,1,2.5-2.074,12.844,12.844,0,0,1,5.084-1.477.406.406,0,0,0,.4-.3,12.348,12.348,0,0,0,.825-5.289c-.03-.652-.1-1.3-.158-1.983-.109.029-.158.039-.205.055a16.654,16.654,0,0,0-4.787,2.506,10.777,10.777,0,0,0-4.021,5.58,1.727,1.727,0,0,0-.129.607C914.391-111.352,914.508-110.495,914.614-109.613Zm-.742-15.967a.5.5,0,0,0-.091.058c-.219.239-.443.475-.654.721a15.54,15.54,0,0,0-3.191,5.462.345.345,0,0,0,.135.446,11.818,11.818,0,0,1,3.584,4.651,2.246,2.246,0,0,0,.123.215c.034-.06.052-.085.064-.114a12.031,12.031,0,0,1,4.036-5.07c.161-.118.137-.224.088-.369A14.567,14.567,0,0,0,913.873-125.58Z" fill="#fff"/>
      <path id="Path_167536" data-name="Path 167536" d="M905.183-118.493h1a7.044,7.044,0,0,0,.932,3.226l-.827.561A7.661,7.661,0,0,1,905.183-118.493Z" transform="translate(-0.466 -0.596)" fill="#fff"/>
      <path id="Path_167537" data-name="Path 167537" d="M924.543-118.49a7.689,7.689,0,0,1-1.091,3.782l-.833-.556a6.905,6.905,0,0,0,.923-3.226Z" transform="translate(-1.719 -0.596)" fill="#fff"/>
      <path id="Path_167538" data-name="Path 167538" d="M914.415-122.826h.974v.967h-.974Z" transform="translate(-1.13 -0.285)" fill="#fff"/>
      <path id="Path_167539" data-name="Path 167539" d="M914.413-119.688v-.969h.966v.969Z" transform="translate(-1.13 -0.441)" fill="#fff"/>
      <path id="Path_167540" data-name="Path 167540" d="M915.384-117.516h-.965v-.966h.965Z" transform="translate(-1.13 -0.597)" fill="#fff"/>
    </g>
  </g>
</svg>
